<?xml version="1.0" encoding="utf-8"?>
<!-- Generator: Adobe Illustrator 25.4.2, SVG Export Plug-In . SVG Version: 6.00 Build 0)  -->
<svg version="1.1" id="Capa_1" xmlns="http://www.w3.org/2000/svg" xmlns:xlink="http://www.w3.org/1999/xlink" x="0px" y="0px"
	 viewBox="0 0 1190.55 841.89" style="enable-background:new 0 0 1190.55 841.89;" xml:space="preserve">
<style type="text/css">
	.st0{fill:#FFFFFF;}
</style>
<path class="st0" d="M-594.79-896.63c0.15-1.42,0.51-3.49,0.58-5.57c0.63-19.62,1.73-39.25,1.66-58.87
	c-0.05-15.95-2.5-31.56-13.93-44.18c-0.72-0.8-0.31-2.63-0.42-3.98c1.52,0.09,3.83-0.43,4.44,0.36c3.39,4.41,7.19,8.78,9.33,13.81
	c9.16,21.46,14,43.97,15.06,67.29c0.07,1.64,0.48,3.26,0.89,5.86c4.9-9.68,9.19-18.61,13.88-27.31
	c10.76-19.96,22.5-39.3,38.62-55.53c7.81-7.86,16.4-14.7,27.59-17.12c1.84-0.4,3.94,0.44,5.92,0.7c-0.89,1.77-1.38,3.96-2.73,5.25
	c-30.18,28.96-57.6,75.6-66.27,113.73c1.95-2.59,3.3-4.34,4.6-6.11c10.64-14.55,21.83-28.54,37.5-38.13
	c7.12-4.36,14.75-6.98,23.21-6.09c1.38,0.15,2.65,1.39,3.96,2.12c-0.75,1.15-1.24,2.69-2.29,3.39
	c-19.7,13.08-34.15,31.01-46.73,50.62c-12.26,19.12-21.75,39.62-29.2,61.05c-0.6,1.72,0.07,3.89,0.16,5.85
	c0.05,0.95,0.51,2.1,0.13,2.8c-5.55,10.24-2.75,20.49,0.25,30.53c1.65,5.51,4.48,10.68,6.92,15.94
	c10.59,22.85,14.63,46.37,5.52,70.57c-7.5,19.9-23.66,29.87-43.52,34.25c-8.68,1.92-17.69,2.37-26.8,3.52
	c0.3,1.85,0.65,4.03,1.28,7.87c-3.06-2.6-4.96-4.22-7.32-6.24c-0.24,3.16-0.46,6.02-0.68,8.88c-0.38,0.26-0.76,0.52-1.15,0.77
	c-1.98-2.45-3.96-4.9-5.66-7.01c-3.67,1.59-7.51,3.24-11.34,4.9c-0.23-0.47-0.45-0.94-0.68-1.41c1.94-2.83,3.88-5.66,6.62-9.65
	c-5.72,2.03-9.91,3.51-14.09,4.99c-0.3-0.44-0.59-0.89-0.89-1.33c1-2,2-4,3.03-6.07c-4.26-1.37-8.62-2.78-12.99-4.19
	c0.1-0.5,0.2-1,0.3-1.5c2.86-0.2,5.72-0.4,8.59-0.59c0.09-0.37,0.18-0.74,0.27-1.11c-2.04-1.56-4.11-3.08-6.12-4.68
	c-25.39-20.12-36.72-57.7-26.17-87.22c4.41-12.33,12.47-21.37,24.66-26.63c16.25-7.01,32.07-14.93,44.75-27.54
	c4.82-4.8,7.65-11.55,12.11-16.79c5.44-6.39,4.12-13.9,4.36-21.02c0.63-18.62,1.64-37.44-3.94-55.52
	c-1.89-6.12-6.52-11.37-9.71-17.11c-0.82-1.48-0.95-3.36-1.39-5.05c1.8,0.33,4.3,0.03,5.27,1.11c3.07,3.39,6.36,6.96,8.14,11.08
	C-604.01-920.92-599.5-908.63-594.79-896.63z M-641.39-803.6c0.48,0.53,0.96,1.05,1.45,1.58c-1.23,0.9-2.45,1.83-3.7,2.71
	c-4.21,2.96-8.69,5.6-12.61,8.91c-16.3,13.77-26.49,30.51-25.05,52.78c0.77,11.9,5.01,22.62,10.69,32.9
	c1.67,3.03,2.81,6.49,5.01,9.05c2.23,2.58,5.32,4.53,8.3,6.33c21.46,12.98,43.87,12.65,66.67,4.25
	c16.11-5.93,26.7-17.26,30.73-34.02c4.61-19.17,2.06-37.99-6.55-55.39c-6.6-13.33-11.7-26.7-12.11-41.68
	c-9.67,1.08-5.24-7.26-7.02-10.68c-3.15,2.85-6.1,5.52-9.06,8.19c-1.57-2.06-3.15-4.11-4.71-6.15c-4.17,3.39-5.99,2.85-7.69-2.9
	c-0.78-2.63-1.46-5.29-2.23-8.09c-3.72,4.1-6.84,8.01-10.43,11.41c-12.98,12.29-28.41,20.76-44.74,27.62
	c-11.47,4.81-19.09,12.88-23.15,24.57c-4.72,13.58-4.09,27.15-0.27,40.73c2.6,9.25,6.57,17.85,12.96,25.25
	c-8.82-18.14-12.86-36.76-5.33-56.28C-672.88-781.57-658.66-794.14-641.39-803.6z M-577.18-873.27c2.62-5.38,6.42-10.6,7.8-16.4
	c9.77-40.93,27.2-78.02,53.89-110.66c3.38-4.13,6.9-8.14,10.36-12.2c-0.45-0.44-0.9-0.89-1.35-1.33
	c-6.95,6.57-14.5,12.62-20.74,19.82c-19.8,22.85-33.43,49.51-45.89,76.81c-1.57,3.45-3.72,7.04-3.89,10.65
	C-577.51-895.64-577.18-884.66-577.18-873.27z M-578.18-827.6c8.06-22.22,17.19-43.9,29.22-64.27
	c12.06-20.42,26.45-38.98,44.71-54.41c-10.35,2.51-18.32,8.66-25.57,15.79c-21.14,20.79-35.98,45.95-49.33,72.07
	c-1.34,2.62-1.35,5.91-1.83,8.18c2.6,0.38,4.51,0.66,6.41,0.93c-0.31,2.01-0.01,4.44-1.05,5.95
	C-578.96-838.45-578.74-833.15-578.18-827.6z M-585.83-950.8c-0.29,0.02-0.59,0.03-0.88,0.05c-0.07,0.58-0.19,1.15-0.22,1.73
	c-0.76,16.27-1.25,32.55-2.34,48.8c-0.69,10.26-2.73,20.43-3.3,30.69c-0.66,11.86,1.55,23.79-0.28,35.68
	c-0.11,0.72,0.22,1.51,0.4,2.55c4.51-3.39,4.76-7.93,5.39-12.55c4.36-31.73,6.32-63.51,2.79-95.46
	C-584.69-943.15-585.3-946.97-585.83-950.8z M-600.95-895.52c-0.4,0-0.81-0.01-1.21-0.01c0,2.25,0.07,4.51-0.01,6.75
	c-0.48,14.11-1.08,28.22-1.42,42.33c-0.09,3.72,0.59,7.46,0.91,11.2c0.85-0.05,1.7-0.1,2.54-0.15
	C-594.5-855.47-598.43-875.49-600.95-895.52z"/>
<path class="st0" d="M-1140.84-587.67c3.45-7.8,6.59-14.91,9.3-21.04c-1.95-3.95-3.48-7.12-5.08-10.24
	c-0.28-0.54-0.84-0.94-1.32-1.35c-7.9-6.57-8.72-15.05-2.25-23.39c0.5-0.64,1.1-1.2,1.61-1.75c-4.37-10.38-2.11-14.45,7.81-15.95
	c1.55-5.02,1.74-10.82,4.73-13.87c2.98-3.04,8.77-3.33,14.22-5.12c-0.2,0.69,0.05,0.08,0.15-0.55c1.45-8.66,5.37-11.01,13.61-7.91
	c3.12,1.17,5.9,1.85,9.42,0.9c6.32-1.7,11.26,2.35,13.92,9.85c0.65,1.83,2.44,3.33,3.91,4.77c2.21,2.17,4.6,4.15,6.76,6.07
	c3.5-1.18,7.34-3.54,11.12-3.46c3.77,0.08,7.48,2.61,12.32,4.49c8.63-3.26,13.55-0.83,17.57,9.54c0.54,1.39,2.37,2.52,3.85,3.26
	c8.55,4.21,13.21,12.34,11.46,21.7c-0.66,3.53-2.93,6.75-4.92,11.12c0.29,1.04,1.02,3.41,1.6,5.82c1.55,6.5-1.34,12.29-7.4,15.19
	c-1.25,0.6-3.23,1.37-3.39,2.32c-1.19,7.01-5.88,9.59-12.11,10.05c-0.2,0.65-0.35,0.96-0.38,1.29c-1.33,12.8-8.38,17.49-20.71,13.89
	c-1.37-0.4-3.33-0.62-4.39,0.06c-8.7,5.58-12.55,4.74-17.53-4.18c-0.31-0.56-0.71-1.06-1.31-1.95
	c-7.69,6.06-15.23,12.01-23.05,18.18c0.41,1.05,0.68,2.11,1.2,3.03c7.59,13.47,7.78,27.39-1.46,39.45
	c-12.19,15.92-25.32,31.28-39.36,45.58c-23.9,24.34-49.57,46.85-77.55,66.49c-9.62,6.75-19.93,12.61-30.38,18.01
	c-3.79,1.96-8.89,1.37-13.39,1.95c0.16-4.15-0.39-8.48,0.58-12.43c8.39-34.2,22.1-66.49,36.04-98.67
	c9.98-23.04,20.62-45.77,34.97-66.51c3.59-5.18,7.53-10.19,11.8-14.82C-1168.53-589.03-1156.79-595.86-1140.84-587.67z
	 M-1120.27-502.91c4.08-5.48,9.16-11.64,13.52-18.27c7.72-11.76,7.04-24.45-1.4-35.78c-8.98-12.05-21.81-18.55-34.98-24.83
	c-10.54-5.03-19.86-3.44-27.09,4.96c-8.63,10.03-17.23,20.4-23.82,31.8c-22.7,39.29-39.29,81.37-54.2,124.12
	c-3.25,9.31-5.63,18.93-8.77,29.64c2.96-1.05,4.53-1.47,5.97-2.14c21.67-10.05,39.74-25.3,58.14-40.09
	c2.46-1.98,1.61-3.84-0.24-5.36c-1.24-1.01-3.18-1.18-4.39-2.21c-1.28-1.09-2.07-2.75-3.08-4.16c1.61-0.68,3.62-2.34,4.77-1.87
	c3.84,1.57,7.37,3.89,11.6,6.25c3.92-3.41,8.63-7.57,13.42-11.64c2.24-1.9,2.59-3.99,0.42-5.88c-2.84-2.48-6.15-4.42-8.94-6.94
	c-1.33-1.2-1.91-3.22-2.83-4.87c1.87-0.33,4.29-1.58,5.5-0.84c4.98,3.03,9.6,6.66,14.7,10.32c3.79-3.61,8.41-7.7,12.58-12.21
	c1.08-1.17,1.47-3.91,0.93-5.49c-2.08-6.06-7.34-9.2-12.53-12.26c-2.21-1.3-5.7-2.09-3.87-5.6c1.98-3.78,5.1-1.58,7.16,0.01
	c5.89,4.56,11.49,9.48,16.74,13.87c3.16-2.91,6.93-6.7,11.04-10.08c3.84-3.16,3.27-6.28,0.15-9.07
	c-6.29-5.63-12.97-10.84-19.23-16.51c-1.36-1.23-1.62-3.67-2.38-5.56c1.95-0.01,4.53-0.83,5.75,0.11
	C-1137.25-517.04-1129.17-510.21-1120.27-502.91z M-1106.03-564.74c7.65-6.02,14.95-11.76,22.25-17.5c8.02-6.3,8.02-6.3,12.4,2.55
	c2.79,5.63,4.68,6.1,8.54,1.4c2.83-3.44,4.71-3.25,8.64-1.14c6.66,3.57,12.85,2.5,13.29-6.53c0.06-1.33,0.04-2.67-0.07-3.99
	c-0.25-3.2,1.07-4.44,4.37-4.32c7.21,0.26,7,0.09,8.37-7.57c0.28-1.55,2.73-3.72,4.32-3.84c4.85-0.37,7.41-2.71,6.45-7.5
	c-0.51-2.56-1.61-5.07-2.81-7.41c-1.63-3.19-1.84-5.29,2.11-7.09c1.79-0.81,3.52-3.54,3.79-5.6c0.99-7.57-2.42-12.7-9.69-14.61
	c-3.95-1.04-5.91-2.48-5.75-7.01c0.07-1.86-2.17-4.7-4.03-5.45c-1.44-0.59-4.01,1.19-5.9,2.24c-0.94,0.52-1.3,2.02-2.22,2.63
	c-1.11,0.74-2.97,1.76-3.72,1.33c-1.09-0.64-2.04-2.46-2.06-3.8c-0.09-5.37-3.63-8-8.36-5.44c-3,1.62-6.28,3.71-8,6.47
	c-2.27,3.65-5.62,7.34-1.82,12.81c3.48,5,1.54,9.73-3.56,13.29c-0.89,0.62-1.79,1.23-2.6,1.78c4.11,11.85-0.27,17.77-12.32,17.36
	c-1.28-0.04-3.12,0.4-3.8,1.3c-2.41,3.18-4.42,6.66-6.59,10.02c-1.93-1.73-1.73-1.21-1.35-0.99c6.32,3.63,6.4,3.88,1.53,9.56
	c-5.82,6.8-11.71,13.53-17.31,20C-1109.84-569.33-1108.04-567.16-1106.03-564.74z M-1134.01-654.18c-0.23,0.62-0.46,1.24-0.7,1.86
	c1.82,2.04,3.79,3.97,5.41,6.16c0.78,1.06,1.51,2.81,1.15,3.88c-0.34,1.01-2.2,2.27-3.27,2.16c-5.67-0.56-5.35,4.06-6.32,7.22
	c-1.02,3.31,0.38,6.02,3.9,6.9c3.33,0.83,4.82,2.3,4.09,6c-0.22,1.11,1.23,3.38,2.38,3.77c5.2,1.79,4.3,4.97,2.62,8.69
	c-3.33,7.37-6.56,14.79-9.89,22.32c3.08,1.54,5.67,2.84,8.37,4.19c5.43-8.4,10.66-16.3,15.66-24.34c1.85-2.97,3.72-4.21,7.58-4.02
	c2.77,0.14,7.07-1.67,8.25-3.9c2.75-5.17,5.3-7.87,11.41-5.06c1.37,0.63,4.45-0.52,5.56-1.84c0.86-1.03,0.04-3.64-0.37-5.48
	c-0.24-1.07-1.25-1.95-1.71-3.01c-0.75-1.71-1.33-3.49-1.97-5.25c1.87-0.63,3.72-1.68,5.63-1.82c4.75-0.36,6.13-2.66,3.77-6.95
	c-0.56-1.01-1.15-2.06-1.96-2.87c-2.76-2.75-2.65-4.72,0.09-7.94c2.2-2.59,3.64-7.01,3.14-10.27c-0.3-1.98-4.92-3.32-7.65-4.86
	c-0.53-0.3-1.32-0.1-1.97-0.23c-3.59-0.74-4.07-2.42-2.17-5.56c0.71-1.18,1.01-3.65,0.29-4.43c-1.23-1.36-4.27-3.08-5.04-2.52
	c-4.3,3.06-7.8,1.02-11.55-0.81c-1.42-0.69-3.04-0.99-5.41-1.74c-0.25,2.9-0.57,5.13-0.62,7.37c-0.12,5.57-0.86,6.22-6.13,5.05
	c-10.25-2.29-13.12,0.58-10.7,10.69c0.08,0.32,0.21,0.63,0.29,0.95c1.46,5.64,0.14,6.85-5.74,5.74
	C-1129.65-654.51-1131.86-654.18-1134.01-654.18z M-1100.48-595.26c-1.36-2.34-2.61-4.49-4.12-7.08
	c-5.41,8.41-10.54,16.4-15.68,24.39c0.28,0.46,0.56,0.93,0.84,1.39c1.37-0.48,3.17-0.57,4.03-1.51
	C-1110.3-583.71-1105.41-589.54-1100.48-595.26z"/>
<path class="st0" d="M743.36-575.2c9.96,3.87,19.67,7.55,29.28,11.5c1.43,0.59,3.22,2.41,3.25,3.71c0.04,1.39-1.8,2.83-2.47,3.76
	c6.75,9.2,14.36,18.27,20.55,28.23c26.06,41.94,0.02,86.59-30.57,103.48c-21.4,11.81-44.23,13.78-67.81,9.81
	c-28.21-4.74-52.46-16.93-70.39-39.8c-29.51-37.67-14.67-85.52,17.56-108.12c13.21-9.27,28.12-14.08,43.78-17.02
	c0.58-0.11,1.15-0.24,2.95-0.61c-3-2.74-5.51-4.65-7.52-7.01c-0.97-1.14-1.81-3.63-1.22-4.53c0.71-1.07,3.28-1.85,4.57-1.4
	c6.09,2.12,12.48,3.96,17.89,7.31c6.01,3.72,12.17,4.83,19.93,4.8c0.77-5.03,1.99-10.18,2.18-15.37c0.13-3.53,1.41-5.06,4.53-6.05
	c5.46-1.73,10.54-1.63,14.89,2.53c4.44,4.25,4.33,9.49,2.59,14.79C746.11-581.43,744.41-577.82,743.36-575.2z M698.01-568.65
	c-1.44-3.31-3.1-5.65-7.44-4.93c-14.74,2.44-28.81,6.58-41.53,14.71c-25.74,16.46-38.64,48.18-30.72,76.67
	c4.69,16.83,15.12,29.89,28.92,40.2c22.06,16.47,47.11,23.48,74.48,22.27c26.31-1.17,48.07-11.5,63.21-33.48
	c16.38-23.77,18.44-48.63,2.08-73.21c-6.65-9.99-15.06-18.87-23.18-27.8c-5.23-5.75-7.52-5.61-13.83-2.35
	c5.97,8.58,12.16,17.17,17.92,26.03c0.94,1.45,0.02,4.11-0.05,6.21c-1.77-0.68-3.98-0.91-5.24-2.12
	c-7.78-7.5-17.59-10.15-27.7-12.63c-0.96,4.68-1.51,8.98-2.76,13.06c-2.09,6.81-4.48,13.54-7.11,20.16
	c-0.48,1.2-2.67,1.96-4.21,2.33c-0.38,0.09-2.07-2.28-1.88-3.29c1.68-9.18-1.73-17.43-4.61-25.7c-5.81-16.75-5.95-16.94-23.67-16.08
	c-10.12,0.49-20.18,2.01-30.28,2.8c-2.04,0.16-4.17-0.93-6.26-1.44c1.14-1.94,1.87-4.43,3.53-5.69c2.88-2.17,6.18-4,9.58-5.23
	C677.38-561.84,687.62-565.14,698.01-568.65z M717.43-568.86c-6.46-4.31-12.47-8.33-18.47-12.34c1.72,4.4,4.19,7.76,6.06,11.43
	c2.7,5.29,1.6,6.9-4.13,8.19c-7.34,1.66-14.6,3.67-21.9,5.53c2.5,1.06,4.76,0.99,7,1.07c6.96,0.26,13.93,0.35,20.86,0.96
	c4.82,0.42,8.07,3.05,9.66,8.02c2.35,7.35,5.27,14.52,7.95,21.76c1.83-5.7,2.95-11.39,3.46-17.14c0.45-5.11,0.92-5.93,6.01-4.73
	c6.35,1.49,12.61,3.37,18.9,5.08c0.29-0.39,0.58-0.78,0.86-1.18c-4.44-3.58-8.88-7.17-13.31-10.76c-1.42-1.15-2.82-2.33-4.23-3.49
	c1.33-1.32,2.43-3.13,4.02-3.87c3.74-1.74,7.72-2.98,12.2-4.64c-8.8-3.08-15.8-2.75-20.87,5.27c-1.29,2.04-3.52,3.51-5.35,5.19
	c-3.96,3.63-7.47,1.17-10.77-1.06c-3.43-2.32-2.64-5.27-0.66-8.24C715.64-565.17,716.29-566.7,717.43-568.86z M733-596.28
	c-1.62,6.63-2.72,12.86-4.7,18.79c-1.98,5.92-4.83,11.55-7.31,17.31c9.4-7.26,16.53-16.02,20.17-27.18
	C743.46-594.41,740.12-597.75,733-596.28z"/>
<g>
	<path class="st0" d="M1421.3-630.96c0.78,0.11,1.54-0.36,1.77-1.12c1.49-4.95,2.75-10.48,5.09-15.5
		c4.73-10.13,17.04-16.5,28.13-15.32c5.33,0.57,4.72,5.46,5.73,8.75c1.06,3.45-2.09,3.76-4.64,4.22
		c-14.37,2.62-16.88,12.34-13.6,19.76c0.32,0.72,1.12,1.11,1.89,0.9c4.92-1.31,9.73-2.86,14.67-3.66c10-1.63,19.1,0.88,27.26,7.01
		c1.39,1.04,3.57,2.01,5.12,1.7c31.88-6.42,55.45,6.53,73.63,31.65c12.84,17.74,18.47,38.16,20.69,59.63
		c2.89,27.95-0.32,55.23-11.04,81.24c-3.49,8.47-9.19,16.06-14.09,23.92c-1.2,1.92-3,3.85-4.98,4.81c-9.1,4.41-15.57,12-23.18,18.24
		c-12.96,10.63-28.5,12.59-44.4,9.7c-9.39-1.7-16.96-2.27-26.07,3.57c-15.43,9.89-31.93,6.78-46.88-3.26
		c-2.71-1.82-4.9-2.48-8.13-1.7c-13.67,3.27-27.5,4.19-40.65-1.59c-6.41-2.82-12.01-7.49-17.97-11.34
		c-1.63-1.05-3.09-2.68-4.86-3.16c-19.99-5.41-33.31-18.77-41.58-36.85c-19.44-42.52-19.51-85.1,3.02-126.59
		c10.86-20,29.06-31.96,49.7-40.46c1.47-0.6,3.29-1.27,4.07-2.47c8.07-12.43,20.16-16.52,34.02-15.75
		C1403.1-634.13,1412.14-632.3,1421.3-630.96z M1391.62-477.68c0,0.04,0,0.07,0,0.1c0.04,0.89,0.17,2.84,0.22,4.8
		c0.47,18.84,3.59,37.14,12.56,53.93c7.97,14.91,19.56,25.44,37.34,26.25c17.74,0.82,29.07-9.69,38-23.42
		c7.27-11.19,11.18-23.72,13.33-36.79c3.16-19.23,2.3-38.53,0.27-57.78c-1.52-14.45-4.4-28.62-11.1-41.71
		c-5.33-10.41-12.57-19.16-24.45-21.95c-21.5-5.04-37.92,2.1-49.05,21.95C1395.93-529.47,1392.07-504.52,1391.62-477.68z
		 M1466.94-580.62c-0.9,0.71-0.81,2.11,0.19,2.67c16.29,9.11,23.46,24.58,28.16,41.79c5.36,19.63,6.21,39.72,6.18,59.91
		c-0.03,15.58-1.61,31.02-7.46,45.54c-3.5,8.7-8.2,16.92-12.53,25.44c-0.47,0.92,0.04,2.03,1.04,2.28c1.66,0.41,3.56,0.88,5.47,1.27
		c22.73,4.7,42.14-2.66,53.5-21.66c4.7-7.85,8.32-16.82,10.29-25.75c8.43-38.19,3.84-75.45-10.24-111.64
		c-3.87-9.95-9.05-19.27-18.36-25.55C1505.72-598.1,1483.73-593.8,1466.94-580.62z M1423.8-577.64c0.91-0.6,0.94-1.92,0.09-2.6
		c-11.63-9.31-24.61-12.77-39.11-8.75c-21.33,5.9-34.87,20.3-42.57,40.72c-10.31,27.32-13.56,55.48-9.72,84.34
		c2.31,17.35,7.44,33.75,19.35,47.3c12.43,14.14,36.29,20.34,52.14,14.22c0.9-0.35,1.31-1.4,0.86-2.26
		c-3.81-7.22-8.17-14.25-11.02-21.85c-10.88-29.05-11.09-58.99-5.01-88.97C1393.74-539.8,1401.37-562.91,1423.8-577.64z
		 M1335.14-423.51c1.35,0.72,2.85-0.7,2.22-2.09c-2.02-4.48-3.93-8.56-5.43-12.78c-7.33-20.61-8.69-41.92-6.8-63.52
		c1.87-21.36,6.76-41.86,16.7-61.14c11.77-22.85,44.02-41.48,71.26-31.35c1.23,0.46,2.94-0.36,4.8-1.15
		c1.04-0.44,1.32-1.78,0.55-2.59c-11.87-12.52-32.02-18.83-48.98-15.02c-23.69,5.32-42.89,17.88-56.22,38.36
		c-14.35,22.06-18.32,46.86-16.98,72.64c1.1,21.06,6.25,41.07,18,58.92C1319.59-435.11,1326.15-428.25,1335.14-423.51z
		 M1552.83-428.37l0.01,0.01c0.43,0.37,1.09,0.29,1.42-0.18c3.89-5.45,8.27-10.65,11.4-16.51c10.63-19.89,14.81-41.56,15.53-63.87
		c0.91-27.76-3.26-54.5-19.15-78.12c-16.88-25.08-42.1-38.88-72.75-29.21c-9.61,3.03-18.51,7.46-26.66,13.9
		c-0.74,0.59-0.81,1.7-0.15,2.37c1.21,1.25,2.3,2.32,3.1,3.56c2.94,4.58,5.88,4.69,10.94,2.31c25.87-12.12,54.35-4.98,67.93,23.59
		c8.96,18.85,13.95,38.71,16.32,59.3c3.2,27.83,2.53,55.31-8.21,81.74C1552.4-429.09,1552.51-428.65,1552.83-428.37z
		 M1463.15-586.68c0.67-0.59,0.74-1.62,0.14-2.28c-1.6-1.79-3.13-3.48-4.61-5.21c-7.83-9.07-15.31-18.38-19.89-29.63
		c-6.03-14.83-2.28-25,11.43-31c0.17-0.08,0.19-0.51,0.39-1.08c-9.17,1.43-15.92,6.22-18.08,14.95c-1.96,7.93-2.82,16.37-2.63,24.54
		c0.23,9.35-0.46,18.01-6.57,25.12c-0.55,0.64-0.49,1.6,0.12,2.19c5.78,5.61,11.86,9.93,20.67,6.86c1.79-0.63,4.71-0.52,6.52,0.05
		C1456.08-580.44,1459.45-583.46,1463.15-586.68z M1375.64-620.97c16.45-0.49,31.2,4.29,44.7,15.07c1.05,0.84,2.6,0.1,2.61-1.24
		c0.02-5.03,0.07-9.46-0.13-13.87c-0.04-0.85-1.61-2.17-2.63-2.35c-10.09-1.74-20.18-3.91-30.36-4.66
		c-5.36-0.39-10.63,0.96-15.19,4.14C1373.32-622.97,1374.03-620.92,1375.64-620.97z M1457.69-607.86
		c7.72-4.34,14.79-8.32,21.79-12.26c1.09-0.61,1.08-2.17,0-2.8c-8.9-5.17-22.04-5.01-31.12,0.73c-0.77,0.49-0.99,1.51-0.49,2.26
		c2.6,3.9,5.19,7.8,7.7,11.57C1456.04-607.66,1456.97-607.45,1457.69-607.86z"/>
	<path class="st0" d="M1435.57-620.74c0.59-0.06,1.16,0.21,1.49,0.71c0.81,1.22,1.72,2.41,2.14,3.76
		c1.83,5.83,3.11,11.84,5.22,17.56c1.17,3.16,3.78,5.75,5.35,8.8c0.51,0.99,0.64,2.18,0.76,3.38c0.09,0.94-0.64,1.75-1.59,1.76
		c-1.53,0.02-3.1,0.06-3.79-0.69c-2.53-2.75-4.96-5.95-6.23-9.41c-2.44-6.65-4.22-13.57-5.86-20.47c-0.31-1.3,0.56-2.88,1.17-4.41
		C1434.47-620.3,1434.98-620.68,1435.57-620.74L1435.57-620.74z"/>
</g>
<g>
	<path class="st0" d="M-38.67-768.46c1.29-0.93,2.27-1.67,3.29-2.36c1.1-0.74,2.17-1.57,3.37-2.1c4.66-2.07,18.25,2.33,21.18,6.54
		c0.82,1.19,2.35,2.15,3.75,2.62c6.28,2.12,8.42,6.05,7.34,12.74c-0.59,3.67-0.58,7.47-0.44,11.2c0.16,4.25-1.2,7.31-4.16,10.61
		c-3.54,3.96-7.3,7.12-12,9.42c-4.72,2.31-7.86,1.39-10.39-3.14c-0.58-1.03-1.47-1.94-2.38-2.72c-1.87-1.59-3.84-3.06-6.82-5.4
		c-9.78,0.05-18.47,5.58-25.81,13.45c-3.6,3.86-6.87,8.18-9.51,12.75c-2.28,3.95-5.09,5.63-9.51,5.74
		c-13.56,0.33-26.99-0.15-39.81-5.2c-2.6-1.02-4.95-2.68-7.4-4.07c-3.45-1.94-4.34-4.71-4.04-8.74c2.08-27.88,1.7-55.63-7.32-82.51
		c-5.71-17.02-14.62-31.74-31.6-39.96c-3.68-1.78-6.98-2.88-10.97,0.09c-3.66,2.72-6.56,1.99-11.17-0.78
		c-3.65,1.32-6.97,3.03-10.48,3.71c-10.79,2.09-18.42-5.49-16.42-16.26c0.52-2.81,0.8-4.69-1.83-6.81c-2.86-2.3-2.38-5.74-0.3-8.56
		c1.15-1.56,2.85-2.71,4.3-4.04c-13.46-13.14-0.2-34.27,18.23-34.08c0.37-1.09,0.96-2.27,1.17-3.51
		c2.76-16.35,15.46-20.28,29.77-16.09c1.27,0.37,2.58,0.76,3.73,1.41c2.72,1.54,4.88,3.03,8.44,0.75c3.02-1.94,4.13-3.96,4.77-7.23
		c1.3-6.65,5.65-10.79,12.17-12.5c2.87-0.75,5.84-1.1,8.75-1.63c2.68-13.52,5.78-15.41,21.15-12.94
		c2.22-13.43,7.25-19.23,17.7-20.76c9.7-1.42,18.51,0.64,26.51,6.27c0.81,0.57,1.58,1.18,2.37,1.77c3.77-2.7,7.24-5.56,11.06-7.84
		c8.1-4.85,16.7-7.26,25.46-1.94c9.18,5.57,11.18,14.75,11.11,24.67c0,0.66-0.21,1.32-0.27,1.98c-0.05,0.48-0.01,0.97-0.01,1.97
		c7.99-3.06,15.93-6.14,23.54-0.04c7,5.62,8.28,13.61,8.3,22.15c2.46,0,4.59-0.05,6.71,0.01c4.65,0.13,7.97,2.18,9.26,6.82
		c0.68,2.43,1.67,4.02,4.35,5.22c9.79,4.4,11.38,17.75,3.44,26.65c1.12,1.99,2.25,4.01,3.64,6.48c9.47-2.65,18.92-3.26,26.78,4.5
		c7.83,7.74,9.53,16.65,4.9,25.99c6.44,7.49,11.49,15.77,11.87,26.12c0.33,8.87-1.6,11.6-10.15,14.32
		c0.41,4.65-0.59,8.68-5.26,11.23c-1.04,0.56-1.4,2.8-1.63,4.33c-1.53,10.41-9.06,14.91-18.31,9.83c-4.4-2.42-7.48-7.21-11.28-10.8
		c-1.29-1.22-2.95-2.95-4.44-2.94c-29.39,0.21-54.58,10.31-74.59,32.27C-38.71-769.61-38.62-769.25-38.67-768.46z M-0.94-893.49
		c6.18-5.33,9.19-5.55,16.22-1.99c1.22,0.62,2.98,0.5,4.43,0.3c3.85-0.54,7.69-1.24,11.51-2.03c2.16-0.45,5.16-0.52,6.21-1.93
		c3.41-4.59-0.59-12.85-6.46-13.37c-3.97-0.35-5.09-1.91-4.95-5.67c0.17-4.38-1.99-5.97-6.31-5.17c-1.63,0.3-3.24,0.74-4.82,1.23
		c-5.94,1.84-6.77,1-6.12-5.41c0.35-3.43,0.53-7-0.02-10.38c-1.46-9.1-9-13.19-17.4-9.51c-3.17,1.39-5.96,3.61-9.06,5.19
		c-1.49,0.76-3.29,0.91-4.94,1.34c-0.34-1.8-1.04-3.63-0.94-5.41c0.28-4.95,1.57-9.93,1.24-14.82
		c-0.88-13.02-11.24-19.11-22.95-13.42c-4.7,2.28-9.06,5.63-12.92,9.2c-3.48,3.22-5.69,3.16-9.17,0.02
		c-7.54-6.82-16.49-9.2-26.41-6.18c-6,1.82-8.65,6.09-8.03,11c4.96,0,10.54-1.49,14.46,0.41c4.07,1.98,6.53,7.25,10.09,11.56
		c-0.65,0.13-0.17,0.01,0.31-0.06c17.27-2.46,31.24,13.75,26.5,30.61c-0.33,1.17,0.19,2.78,0.77,3.96c1.01,2.08,2.51,3.92,3.57,5.98
		c8.09,15.74-2.45,25.54-15.15,29.17c-1.15,0.33-2.86-1.33-4.31-2.06c0.87-1.37,1.44-3.16,2.66-4.02c2.01-1.41,4.55-2.04,6.66-3.33
		c6.43-3.92,8.03-8.94,4.69-15.7c-1.6-3.24-3.91-6.17-6.16-9.04c-1.68-2.13-1.72-3.6-0.31-6.14c1.37-2.47,2.29-6.21,1.4-8.67
		c-1.47-4.07-4.12-7.96-7.07-11.21c-3.71-4.09-8.66-4.57-13.78-2.31c-6.13,2.7-6.68,2.39-7.83-4.37
		c-1.58-9.23-6.33-11.74-14.34-6.89c-4.4,2.66-8.29,3.64-12.9,1.08c-1.12-0.62-2.55-0.77-3.86-0.96c-4.28-0.63-6.68,1.28-7.21,5.55
		c-0.35,2.82,0.36,6.8-1.21,8.16c-1.78,1.53-5.59,0.7-8.52,0.93c-1.16,0.09-2.34,0.15-3.47,0.42c-5.43,1.31-7.91,4.22-8.17,9.59
		c7.35,0.85,14.08,2.75,17.08,10.65c0.22,0.59,1.21,1.29,1.83,1.28c6.25-0.09,9.05,4.12,11.24,9.07c5.68-0.59,10.99-0.37,14.01,5.34
		c3.42,6.47,1.93,12.15-3.44,16.97c1.73,2.37,2.84,5.18,4.9,6.43c4.33,2.62,6.42,6.4,6.81,11.01c0.48,5.62,0.61,11.31,0.25,16.94
		c-0.41,6.49-3.16,7.77-8.3,3.51c-4.78-3.97-8.78-8.89-13.54-13.81c-1.74,0.56-4.22,1.36-7.01,2.25c0.55,0.87,0.93,1.59,1.41,2.22
		c12.45,16.12,12.63,35.12,12.5,54.13c-0.01,1.17-1.97,2.65-3.35,3.32c-0.48,0.23-2.69-1.44-2.84-2.44
		c-1.89-12.42-8.65-22.43-15.44-32.52c-2.92-4.33-5.26-9.19-7.04-14.11c-1.39-3.81-1.5-8.09-2.08-11.52
		c-2.17-0.29-5.19,0.06-5.72-0.93c-0.91-1.69-0.25-4.22-0.25-7.27c-0.32-0.31-1.85-1.15-2.35-2.41c-0.57-1.44-0.47-3.27-0.23-4.87
		c0.23-1.52,1-2.95,1.54-4.42c-1.93-0.33-4-1.31-5.75-0.89c-6.59,1.58-6.55,1.75-8.42-5.1c-1.31-4.76-3.97-6.11-8.66-4.25
		c-1.38,0.55-2.58,1.81-3.96,1.99c-1.69,0.22-3.49-0.36-5.24-0.59c0.62-1.67,0.73-4,1.93-4.92c9.15-7.03,17.04-4.91,22.87,6.01
		c1.75-0.1,3.57-0.35,5.39-0.28c4.97,0.17,9.18,3.56,8.63,8.39c-0.61,5.46,1.32,10.08,2.65,15.22c8.35-0.16,16.6-1.03,23.81-5.78
		c6.01-3.96,5.81-8.82,0.06-12.56c-1.74-1.13-2.96-3.04-4.43-4.59c1.84-1.08,3.68-2.16,5.53-3.22c0.28-0.16,0.65-0.16,0.96-0.27
		c3.11-1.15,4.47-3.25,3.69-6.61c-0.75-3.21-2.92-4.29-5.93-4.03c-1.31,0.11-2.6,0.55-3.9,0.84c-2.87,0.65-4.69,0.02-5.42-3.31
		c-1.42-6.46-2.53-6.95-9.36-5.26c-3.82,0.95-5.86-0.72-4.48-4.28c1.33-3.44-0.17-4.94-2.64-6.42c-6.22-3.73-12.05-1.86-17.2,1.94
		c-3.79,2.8-6.31,3-10.42,0.12c-13.47-9.44-25.57-3.69-27.25,12.46c-0.02,0.17-0.02,0.33-0.02,0.5c0.13,3.54-1.73,4.47-5.02,4.43
		c-2.94-0.03-6.07,0.2-8.81,1.17c-5.99,2.11-9.44,6.83-10.4,12.96c-0.83,5.34,3.2,7.42,7.3,9.39c3.44,1.65,3.47,4.14,0.32,6.32
		c-2.49,1.73-5.05,3.36-7.95,5.28c7.03,3.62,7.03,3.62,4.23,10.46c-1.35,3.29-1.98,6.99,1.34,8.99c2.34,1.41,5.88,1.89,8.6,1.35
		c2.94-0.58,5.43-3.18,8.36-4.22c1.57-0.56,4.79-0.3,5.3,0.65c2.08,3.85,3.91,1.96,6.43,0.73c2.29-1.12,5.33-2.4,7.51-1.78
		c9.6,2.74,17.83,7.98,24.66,15.37c11.92,12.89,17.85,28.64,21.6,45.38c4.96,22.13,5.61,44.57,3.91,67.08
		c-0.4,5.34,1.65,7.8,6.19,9.66c12.36,5.07,25.29,5.41,38.3,4.8c1.35-0.06,2.79-1.88,3.9-3.15c5.35-6.11,10.07-12.88,16.02-18.32
		c7.97-7.28,17.76-11.03,28.83-10.25c1.75,0.12,4.03,0.45,5.07,1.59c2.79,3.05,5.04,6.59,7.6,10.07c1.71-2.2,6.53-1.87,6.6-6.66
		c0.01-0.59,1.43-1.55,2.29-1.67c4.25-0.6,3.44-3.41,3.29-6.35c-0.17-3.33-0.15-6.78,0.54-10.02c1.07-5.03,0.15-6.75-5.22-6.89
		c-2.8-0.08-4.46-0.84-4.72-3.81c-0.27-3.05-1.97-3.15-4.58-2.6c-1.51,0.32-4.08-0.07-4.81-1.1c-2.3-3.28-4.03-1.76-6.06-0.01
		c-1.12,0.96-2.2,2.21-3.52,2.63c-4.64,1.49-5.29,4.8-4.02,8.7c1.21,3.69,0.51,6.95-2.47,8.88c-5.49,3.55-11.3,6.64-17.16,9.56
		c-1.32,0.66-4.28,0.42-4.89-0.48c-0.86-1.27-0.92-3.94-0.13-5.34c5.45-9.67,10.21-19.95,17.05-28.57
		c22.05-27.76,51.78-39.55,86.77-38.83c1.85,0.04,3.96,2.25,5.4,3.92c1.94,2.23,2.84,5.64,5.1,7.24c2.9,2.05,6.71,2.8,10.13,4.12
		c1.15-3.11,2.27-6.24,3.47-9.33c0.66-1.7,1.11-4.45,2.27-4.83c5.73-1.86,4.2-4.59,1.8-8.15c-0.93-1.38-0.79-3.49-1.14-5.26
		c1.68-0.24,3.46-0.95,5.03-0.63c7.62,1.54,9.84-0.4,8.69-8.18c-1.19-8.03-4.99-14.77-10.87-20.27c-2.76-2.58-3.53-4.53-0.68-7.9
		c1.64-1.94,2.42-5.56,1.95-8.14c-1.84-10.19-11.23-15.81-21.4-13.33c-3.02,0.74-6.56,2.94-8.87,2.01c-2.25-0.91-3.2-4.98-4.75-7.64
		c-3.83-6.56-8.27-7.97-13.86-3.65c-3.36,2.6-5.62,2.18-8.73-0.16c-5.34-4.02-6.63-3.62-9.69,2.27c-1.59,3.06-3.52,3.23-5.94,1.16
		c-1.01-0.86-1.74-2.49-2.82-2.72c-2-0.43-4.62-0.78-6.11,0.18c-0.98,0.63-1.18,3.97-0.46,5.5c4.06,8.58,4.19,8.52-4.85,11.68
		c-5.45,1.9-6.86,4.74-3.4,9.29c3.78,4.99,8.33,9.48,12.96,13.72c5.48,5.01,6.12,5.64,2.3,12.04
		c-8.58,14.35-20.96,24.77-35.36,32.94c-0.57,0.32-1.25,0.72-1.86,0.67c-2.21-0.15-5.16,0.28-6.41-0.95
		c-1.21-1.19-1.49-4.51-0.72-6.27c1.84-4.21,4.07-8.43,6.97-11.98c7.56-9.27,15.57-18.19,22.81-26.57
		c-2.94-5.46-6.96-10.62-8.55-16.45c-2.18-7.98,4.59-11.06,10.74-13.63c-2.85-5.34-3.68-10.46,0.57-14.7
		C-12-897.13-6.48-896.79-0.94-893.49z M-13.65-843.41c-9.89,10.31-20.09,20.54-27.41,33.2c11.89-7.01,22.09-15.78,29.82-27.24
		C-9.24-840.42-9.85-842.28-13.65-843.41z M-114.83-824.77c-1.52-12.36-5.93-23.37-15.62-33.19
		C-131.46-842.89-120.25-835.31-114.83-824.77z M-107.33-863.49c2.73,3.34,5.31,6.5,7.89,9.66c0.56-0.27,1.13-0.54,1.69-0.81
		c-0.75-5.47-1.5-10.94-2.25-16.41c-0.48,0.05-0.96,0.09-1.44,0.14C-103.26-868.63-105.08-866.33-107.33-863.49z M-55.6-744.51
		c9.45-3.11,10.77-5.54,8.36-14.47C-50.21-753.83-52.91-749.17-55.6-744.51z"/>
	<path class="st0" d="M19.66-867.78c2.2-1.14,4.31-2.49,6.61-3.37c6.91-2.66,12.36,0.05,14,7.21c0.33,1.43-1.14,3.28-1.79,4.93
		c-1.39-0.81-3.36-1.28-4.08-2.5c-2.84-4.76-3.59-5.11-8.33-2.19c-1.13,0.69-2.3,1.42-3.2,2.37c-3.19,3.39-5.74,3.29-8.13-0.93
		c-1.95-3.44-4.93-3.67-8.07-1.64c-1.66,1.07-2.95,2.81-4.7,3.64c-1.64,0.78-3.66,0.75-5.51,1.08c0.34-1.91,0.05-4.35,1.12-5.65
		C4.21-872.82,11.04-873.6,19.66-867.78z"/>
	<path class="st0" d="M-16.93-908.32c-1.16,2.33-3.06,6.68-5.53,10.68c-0.57,0.93-3.07,0.68-4.68,0.98
		c-0.21-1.49-0.86-3.1-0.51-4.45c0.44-1.7,1.79-3.15,2.57-4.79c2.72-5.69,1.43-8.97-4.65-10.29c-3.51-0.76-5.11-1.94-6.21-5.67
		c-0.73-2.47-4.44-4.34-7.17-5.84c-2.06-1.13-5.11-1.52-3.66-4.49c0.62-1.26,3.82-2.08,5.63-1.79c5.35,0.87,9.34,3.85,11.71,9
		c0.62,1.35,2.43,2.4,3.92,3.08C-20.6-919.68-17.16-916.51-16.93-908.32z"/>
	<path class="st0" d="M-74.15-892.88c-0.57,1.81-1.46,5.55-3.01,8.99c-0.54,1.2-2.7,1.67-4.12,2.48c-0.61-1.64-1.82-3.33-1.69-4.92
		c0.19-2.42,1.55-4.72,1.96-7.15c0.87-5.19-0.75-7.4-5.92-7.31c-4.35,0.08-6.76-0.98-6.21-5.82c0.35-3.08-1.32-4.25-4.25-3.88
		c-2.46,0.32-4.87-0.31-4.37-3.07c0.25-1.38,2.78-3.06,4.48-3.33c5.25-0.82,8.51,1.62,10.54,6.3c0.64,1.47,2.36,2.95,3.91,3.47
		C-76.83-905.09-73.77-901.09-74.15-892.88z"/>
	<path class="st0" d="M-99.59-929.2c-4.4,3.52-7.99,2.49-11.85-0.45c-2.99-2.28-5.64-0.12-7.58,2.4c-0.99,1.29-1.39,3.12-2.55,4.19
		c-1.03,0.96-2.98,1.92-4.06,1.54c-0.98-0.34-2.02-2.59-1.83-3.81c1.33-8.77,11.35-13.79,19.47-10.23c1.89,0.83,4.33,0.8,6.47,0.61
		c5.47-0.48,9.41,2.36,9.35,7.58c-0.02,1.56-1.61,3.09-2.48,4.64c-1.21-1.07-2.51-2.06-3.6-3.23
		C-98.75-926.52-98.87-927.44-99.59-929.2z"/>
	<path class="st0" d="M-174.88-862.83c-4,1.92-6.61,1.35-8.26-2.36c-1.23-2.77-3.42-2.32-5.28-0.73c-1.88,1.61-3.31,3.77-5.28,5.23
		c-0.93,0.7-3.27,0.94-3.87,0.31c-0.9-0.92-1.51-3.08-1.04-4.21c3.72-8.93,12.73-11.14,20.51-5.34c0.83,0.62,2.08,0.77,3.16,0.91
		c5.29,0.67,8,4.12,6.68,9.32c-0.39,1.51-2.36,2.61-3.6,3.9c-1.01-1.43-2.08-2.81-2.98-4.31
		C-175.12-860.57-174.88-861.33-174.88-862.83z"/>
	<path class="st0" d="M41.29-829.22c-0.27,6.58-3.25,10.28-7.52,12.89c-0.95,0.58-3.24-0.03-4.21-0.89c-0.6-0.53-0.01-2.58,0.29-3.9
		c0.13-0.55,0.88-0.96,1.35-1.43c4.9-4.92,4.48-7.28-1.38-11.26c-1.59-1.08-2.37-3.34-3.51-5.07c-0.72-1.09-1.52-2.15-2.1-3.32
		c-0.66-1.32-1.96-3.39-1.49-3.99c0.91-1.19,3.01-2.38,4.32-2.11c1.72,0.34,4.19,1.84,4.54,3.27c1.09,4.45,3.98,7.23,6.98,10.27
		C40.17-833.13,40.72-830.45,41.29-829.22z"/>
</g>
<path class="st0" d="M-656.02-695.02c-4.66-20.36-4.55-40.74,1.29-60.97c5.81-20.11,16.56-36.92,33.42-49.41
	c0.46,0.31,0.91,0.63,1.37,0.94c-0.71,0.99-1.25,2.18-2.16,2.94c-25.41,21.25-35.01,49.21-34.36,81.39c0.14,6.95,1.32,13.87,2,20.81
	c0.14,1.41,0.17,2.84,0.26,4.26C-654.81-695.05-655.42-695.04-656.02-695.02z"/>
<path class="st0" d="M-608.35-800.77c-12.3,36.33-29.23,71.37-33.2,110.63c-0.28-2-1.11-4.1-0.75-5.98c2.25-12.05,3.7-24.39,7.39-36
	c7.08-22.26,15.46-44.1,23.34-66.1c0.39-1.1,1.1-2.08,1.66-3.12C-609.39-801.16-608.87-800.97-608.35-800.77z"/>
<path class="st0" d="M-591.97-795.77c0.62,30.04-1.13,59.79-12.25,88.32c-3.66,9.38-8.5,18.05-15.94,24.89
	c-0.4-0.22-0.81-0.44-1.21-0.66c0.25-0.8,0.28-1.8,0.79-2.35c12.24-13.4,17.51-29.96,21.16-47.17c4.09-19.28,5.48-38.84,5.03-58.53
	c-0.03-1.16,0.02-2.33,0.15-3.49c0.04-0.41,0.43-0.77,0.66-1.16C-593.04-795.87-592.5-795.82-591.97-795.77z"/>
<path class="st0" d="M-579.56-790.84c20.89,23.04,9.02,97.82-16.53,103.98c14.41-13.22,22.83-29.41,24.58-48.77
	C-569.8-754.61-573.54-772.87-579.56-790.84z"/>
<g>
	<path class="st0" d="M675.3,319.41c0-9.54-0.51-18.51,0.13-27.4c0.76-10.55,2.06-21.1,3.95-31.5c1.48-8.18,9.16-10.56,15.96-5.64
		c0.66,0.48,1.29,1.27,2,1.36c18.69,2.48,31.05,15.06,43.04,27.67c26.69,28.05,52.81,56.65,79.45,84.75
		c8.1,8.55,17.13,16.22,25.81,24.22c6.56,6.05,6.95,8.25,2.33,15.78c-17.6,28.74-38.93,54.49-62.36,78.64
		c-25.86,26.64-53.97,50.77-82.37,74.61c-2.8,2.35-5.59,4.7-8.48,6.93c-1.02,0.79-2.54,1.97-3.45,1.69
		c-5.84-1.77-12.13-3.04-17.1-6.28c-2.37-1.55-2.9-7.05-2.95-10.78c-0.3-20.61,0.74-41.15,5.04-61.4c0.82-3.87,1.88-7.68,3.08-12.52
		c-13.41-1.21-26.57-2.95-39.77-3.5c-57.16-2.41-110.43,12.53-161.49,36.91c-42.64,20.36-81.88,46.32-120.46,73.34
		c-3.28,2.3-6.35,4.7-10.85,2.36c-5.04-2.62-7.52-5.86-7.32-12.07c1.55-47.34,18.18-89.02,46.52-126.48
		c25.57-33.79,58.12-59.3,94.68-80.13c26.51-15.1,53.98-28.04,83.08-37.4c32.76-10.53,66.17-16.54,100.74-14.3
		C667.94,318.47,671.34,318.97,675.3,319.41z M353.45,567.71c1.18-0.63,1.64-0.81,2.03-1.09c2.4-1.77,4.8-3.55,7.17-5.36
		c33.62-25.74,68.9-48.86,107.14-67.23c42.27-20.32,86.32-34.29,133.48-37.45c27.05-1.81,53.74,0.26,80.26,5.47
		c4.55,0.89,7.01,5.05,6.33,9.78c-0.23,1.55-0.36,3.18-0.15,4.72c0.37,2.72,1.53,5.41,1.5,8.11c-0.18,17.61-0.59,35.23-0.9,52.84
		c-0.07,3.75-0.01,7.51-0.01,12.22c1.92-1.77,3.11-2.84,4.27-3.93C705.9,535.03,717,524,728.64,513.59
		c26.27-23.52,52.42-47.17,75.19-74.18c7.65-9.08,14.36-19.01,20.83-28.98c3.25-5.01,1.71-8.57-2.62-12.76
		c-11.57-11.2-23.6-22-34.36-33.94c-28.55-31.71-57.97-62.5-90.59-89.9c-0.1,0.29-0.59,1.19-0.71,2.14
		c-1.39,11.18-2.91,22.35-3.99,33.56c-0.58,6.03-3.02,12.02-0.24,18.31c0.62,1.4-1.33,4.05-2.31,6.02
		c-0.56,1.13-2.07,1.97-2.25,3.09c-0.61,3.69-2.01,6.18-6.2,6.43c-4.44,0.26-6.17-2.25-6.56-6.74c-24.05,3.55-47.69,6.8-71.25,10.59
		c-24.4,3.92-48.25,10.17-71.39,18.85c-32.56,12.21-61.83,30.07-88.59,52.23c-30.72,25.43-55.69,55.29-72.4,91.72
		C362.82,528.27,357.04,547.29,353.45,567.71z"/>
</g>
</svg>
