<?xml version="1.0" encoding="utf-8"?>
<!-- Generator: Adobe Illustrator 25.4.2, SVG Export Plug-In . SVG Version: 6.00 Build 0)  -->
<svg version="1.1" id="Capa_1" xmlns="http://www.w3.org/2000/svg" xmlns:xlink="http://www.w3.org/1999/xlink" x="0px" y="0px"
	 viewBox="0 0 3371 1753" style="enable-background:new 0 0 3371 1753;" xml:space="preserve">
<style type="text/css">
	.st0{fill:#FFFFFF;}
</style>
<g>
	<g>
		<path class="st0" d="M1933.77,274.89c3.95-12.38,6.9-26.63,12.92-39.5c11.11-23.79,40.02-38.75,66.07-35.98
			c12.52,1.34,11.09,12.82,13.46,20.55c2.49,8.1-4.91,8.83-10.9,9.91c-35.65,6.51-40.23,31.61-30.51,49.3
			c12.61-3.22,24.85-7.33,37.44-9.37c23.49-3.83,44.86,2.07,64.02,16.46c3.26,2.44,8.38,4.72,12.02,3.99
			c74.87-15.08,130.23,15.34,172.93,74.33c30.16,41.66,43.38,89.62,48.59,140.05c6.79,65.64-0.75,129.71-25.93,190.8
			c-8.2,19.89-21.58,37.72-33.09,56.18c-2.82,4.51-7.05,9.04-11.7,11.3c-21.37,10.36-36.57,28.18-54.44,42.84
			c-30.44,24.97-66.93,29.57-104.28,22.78c-22.05-3.99-39.83-5.33-61.23,8.38c-36.24,23.23-74.99,15.92-110.1-7.66
			c-6.36-4.27-11.51-5.82-19.09-3.99c-32.1,7.68-64.59,9.84-95.47-3.73c-15.05-6.62-28.21-17.59-42.2-26.63
			c-3.83-2.47-7.26-6.29-11.41-7.42c-46.95-12.71-78.23-44.08-97.65-86.54c-45.66-99.86-45.82-199.86,7.09-297.31
			c25.51-46.97,68.25-75.06,116.72-95.02c3.45-1.41,7.73-2.98,9.56-5.8c18.95-29.19,47.35-38.8,79.9-36.99
			C1888.89,267.04,1911.15,271.72,1933.77,274.89z M1860.87,634.55c0.09,2.02,0.4,6.69,0.52,11.39c1.1,44.25,8.43,87.23,29.5,126.66
			c18.72,35.02,45.94,59.75,87.7,61.65c41.66,1.93,68.27-22.76,89.25-55c17.07-26.28,26.26-55.71,31.31-86.4
			c7.42-45.16,5.4-90.49,0.63-135.7c-3.57-33.94-10.33-67.22-26.07-97.96c-12.52-24.45-29.52-45-57.42-51.55
			c-50.49-11.84-89.06,4.93-115.2,51.55C1870.97,512.82,1861.9,571.46,1860.87,634.55z M2033.28,396.31
			c41.78,20.95,59.58,58.64,71.07,100.75c12.59,46.1,14.58,93.29,14.51,140.7c-0.07,36.59-3.78,72.85-17.52,106.95
			c-8.81,21.87-20.81,42.46-31.59,63.97c4.74,1.13,11.06,2.79,17.45,4.11c53.38,11.04,98.97-6.25,125.65-50.87
			c11.04-18.44,19.54-39.5,24.17-60.48c19.8-89.69,9.02-177.2-24.05-262.19c-9.09-23.37-21.25-45.26-43.12-60.01
			C2127.27,350.53,2073.23,362.54,2033.28,396.31z M1940.75,396.92c-28.35-24.38-60.17-33.84-95.94-23.93
			c-50.09,13.86-81.89,47.68-99.98,95.63c-24.21,64.16-31.85,130.3-22.83,198.08c5.43,40.75,17.47,79.26,45.44,111.09
			c30.25,34.41,89.27,48.78,126.38,31.73c-9.35-18.25-20.62-35.84-27.78-54.96c-25.55-68.23-26.05-138.54-11.77-208.95
			C1866.16,487.01,1884.71,431.35,1940.75,396.92z M1737.57,766.11c-6.22-14.37-12.38-26.59-16.91-39.39
			c-17.22-48.4-20.41-98.45-15.97-149.18c4.39-50.17,15.88-98.31,39.22-143.59c27.64-53.66,103.38-97.42,167.36-73.63
			c3.99,1.48,10.08-2.7,16.3-4.6c-27.24-32.15-77.1-48.8-118.79-39.46c-55.64,12.49-100.73,41.99-132.04,90.09
			c-33.7,51.81-43.03,110.05-39.88,170.6c2.58,49.46,14.68,96.46,42.27,138.38C1693.49,737.11,1711.55,755.03,1737.57,766.11z
			 M2238.22,749.16c1.06,0.89,2.11,1.81,3.17,2.7c9.49-13.55,20.46-26.3,28.21-40.79c24.97-46.71,34.78-97.61,36.47-150
			c2.14-65.2-7.66-128-44.98-183.47c-39.64-58.9-98.87-91.31-170.86-68.6c-23.84,7.52-45.82,18.69-65.81,35.21
			c3.97,4.39,7.63,7.52,10.1,11.37c6.9,10.76,13.81,11.01,25.69,5.43c60.76-28.46,127.64-11.7,159.54,55.4
			c21.04,44.27,32.76,90.91,38.33,139.27C2265.72,621.54,2264.05,686.61,2238.22,749.16z M2031.75,375.92
			c-4.7-5.28-9.11-10.15-13.39-15.1c-18.39-21.3-35.96-43.17-46.71-69.59c-14.16-34.83-5.35-58.71,26.84-72.81
			c0.4-0.19,0.45-1.2,0.92-2.54c-21.54,3.36-37.39,14.61-42.46,35.11c-4.6,18.62-6.62,38.45-6.18,57.63
			c0.56,23.11-1.24,44.39-17.78,61.56c14.47,14.49,29.38,26.56,51.69,18.48c4.13-1.5,9.72-1.46,13.9,0.02
			C2013.32,393.91,2021.65,384.45,2031.75,375.92z M1812.19,298.56c45.7-4.04,85.91,8.31,122.24,39.81
			c0-15.27,0.28-27.95-0.28-40.58c-0.09-2-3.78-5.1-6.18-5.52c-23.7-4.09-47.39-9.18-71.3-10.94
			C1840.44,280.12,1824.61,285.71,1812.19,298.56z M2012.99,330.41c21.3-11.98,40.47-22.76,59.58-33.54
			c-21.63-16.42-58.53-16.58-81.66,0.35C1998.36,308.4,2005.82,319.65,2012.99,330.41z"/>
		<path class="st0" d="M1172.58,774.19c3.03-2.18,5.33-3.92,7.73-5.54c2.58-1.74,5.1-3.69,7.91-4.93
			c10.94-4.86,42.86,5.47,49.74,15.36c1.93,2.79,5.52,5.05,8.81,6.15c14.75,4.98,19.78,14.21,17.24,29.92
			c-1.39,8.62-1.36,17.54-1.03,26.3c0.38,9.98-2.82,17.17-9.77,24.92c-8.31,9.3-17.14,16.72-28.18,22.12
			c-11.09,5.43-18.46,3.26-24.4-7.37c-1.36-2.42-3.45-4.56-5.59-6.39c-4.39-3.73-9.02-7.19-16.02-12.68
			c-22.97,0.12-43.38,13.1-60.62,31.59c-8.45,9.07-16.13,19.21-22.33,29.94c-5.35,9.28-11.95,13.22-22.33,13.48
			c-31.85,0.77-63.39-0.35-93.5-12.21c-6.11-2.4-11.63-6.29-17.38-9.56c-8.1-4.56-10.19-11.06-9.49-20.53
			c4.89-65.48,3.99-130.65-17.19-193.78c-13.41-39.97-34.34-74.54-74.21-93.85c-8.64-4.18-16.39-6.76-25.76,0.21
			c-8.6,6.39-15.41,4.67-26.23-1.83c-8.57,3.1-16.37,7.12-24.61,8.71c-25.34,4.91-43.26-12.89-38.56-38.19
			c1.22-6.6,1.88-11.01-4.3-15.99c-6.72-5.4-5.59-13.48-0.7-20.1c2.7-3.66,6.69-6.36,10.1-9.49c-31.61-30.86-0.47-80.49,42.81-80.04
			c0.87-2.56,2.25-5.33,2.75-8.24c6.48-38.4,36.31-47.63,69.92-37.79c2.98,0.87,6.06,1.78,8.76,3.31
			c6.39,3.62,11.46,7.12,19.82,1.76c7.09-4.56,9.7-9.3,11.2-16.98c3.05-15.62,13.27-25.34,28.58-29.36
			c6.74-1.76,13.72-2.58,20.55-3.83c6.29-31.75,13.57-36.19,49.67-30.39c5.21-31.54,17.03-45.16,41.57-48.76
			c22.78-3.33,43.47,1.5,62.26,14.73c1.9,1.34,3.71,2.77,5.57,4.16c8.85-6.34,17-13.06,25.98-18.41
			c19.02-11.39,39.22-17.05,59.79-4.56c21.56,13.08,26.26,34.64,26.09,57.94c0,1.55-0.49,3.1-0.63,4.65
			c-0.12,1.13-0.02,2.28-0.02,4.63c18.77-7.19,37.41-14.42,55.29-0.09c16.44,13.2,19.45,31.96,19.49,52.02
			c5.78,0,10.78-0.12,15.76,0.02c10.92,0.31,18.72,5.12,21.75,16.02c1.6,5.71,3.92,9.44,10.22,12.26
			c22.99,10.33,26.73,41.69,8.08,62.59c2.63,4.67,5.28,9.42,8.55,15.22c22.24-6.22,44.43-7.66,62.89,10.57
			c18.39,18.18,22.38,39.1,11.51,61.04c15.12,17.59,26.98,37.04,27.88,61.34c0.78,20.83-3.76,27.24-23.84,33.63
			c0.96,10.92-1.39,20.39-12.35,26.37c-2.44,1.32-3.29,6.58-3.83,10.17c-3.59,24.45-21.28,35.02-43,23.09
			c-10.33-5.68-17.57-16.93-26.49-25.36c-3.03-2.87-6.93-6.93-10.43-6.9c-69.02,0.49-128.18,24.21-175.18,75.79
			C1172.48,771.47,1172.69,772.34,1172.58,774.19z M1261.16,480.53c14.51-12.52,21.58-13.03,38.09-4.67c2.87,1.46,7,1.17,10.4,0.7
			c9.04-1.27,18.06-2.91,27.03-4.77c5.07-1.06,12.12-1.22,14.58-4.53c8.01-10.78-1.39-30.18-15.17-31.4
			c-9.32-0.82-11.95-4.49-11.63-13.32c0.4-10.29-4.67-14.02-14.82-12.14c-3.83,0.7-7.61,1.74-11.32,2.89
			c-13.95,4.32-15.9,2.35-14.37-12.71c0.82-8.06,1.24-16.44-0.05-24.38c-3.43-21.37-21.14-30.98-40.87-22.33
			c-7.44,3.26-14,8.48-21.28,12.19c-3.5,1.78-7.73,2.14-11.6,3.15c-0.8-4.23-2.44-8.53-2.21-12.71c0.66-11.63,3.69-23.32,2.91-34.81
			c-2.07-30.58-26.4-44.88-53.9-31.52c-11.04,5.35-21.28,13.22-30.34,21.61c-8.17,7.56-13.36,7.42-21.54,0.05
			c-17.71-16.02-38.73-21.61-62.03-14.51c-14.09,4.27-20.32,14.3-18.86,25.83c11.65,0,24.75-3.5,33.96,0.96
			c9.56,4.65,15.34,17.03,23.7,27.15c-1.53,0.31-0.4,0.02,0.73-0.14c40.56-5.78,73.37,32.29,62.24,71.89
			c-0.78,2.75,0.45,6.53,1.81,9.3c2.37,4.89,5.9,9.21,8.38,14.04c19,36.97-5.75,59.98-35.58,68.51c-2.7,0.78-6.72-3.12-10.12-4.84
			c2.04-3.22,3.38-7.42,6.25-9.44c4.72-3.31,10.69-4.79,15.64-7.82c15.1-9.21,18.86-21,11.01-36.87
			c-3.76-7.61-9.18-14.49-14.47-21.23c-3.95-5-4.04-8.45-0.73-14.42c3.22-5.8,5.38-14.58,3.29-20.36
			c-3.45-9.56-9.68-18.69-16.6-26.33c-8.71-9.61-20.34-10.73-32.36-5.43c-14.4,6.34-15.69,5.61-18.39-10.26
			c-3.71-21.68-14.87-27.57-33.68-16.18c-10.33,6.25-19.47,8.55-30.3,2.54c-2.63-1.46-5.99-1.81-9.07-2.25
			c-10.05-1.48-15.69,3.01-16.93,13.03c-0.82,6.62,0.85,15.97-2.84,19.16c-4.18,3.59-13.13,1.64-20.01,2.18
			c-2.72,0.21-5.5,0.35-8.15,0.99c-12.75,3.08-18.58,9.91-19.19,22.52c17.26,2,33.07,6.46,40.11,25.01c0.52,1.39,2.84,3.03,4.3,3.01
			c14.68-0.21,21.25,9.68,26.4,21.3c13.34-1.39,25.81-0.87,32.9,12.54c8.03,15.2,4.53,28.54-8.08,39.86
			c4.06,5.57,6.67,12.17,11.51,15.1c10.17,6.15,15.08,15.03,15.99,25.86c1.13,13.2,1.43,26.56,0.59,39.78
			c-0.96,15.24-7.42,18.25-19.49,8.24c-11.23-9.32-20.62-20.88-31.8-32.43c-4.09,1.32-9.91,3.19-16.46,5.28
			c1.29,2.04,2.18,3.73,3.31,5.21c29.24,37.86,29.66,82.48,29.36,127.13c-0.02,2.75-4.63,6.22-7.87,7.8
			c-1.13,0.54-6.32-3.38-6.67-5.73c-4.44-29.17-20.32-52.68-36.26-76.38c-6.86-10.17-12.35-21.58-16.53-33.14
			c-3.26-8.95-3.52-19-4.89-27.06c-5.1-0.68-12.19,0.14-13.43-2.18c-2.14-3.97-0.59-9.91-0.59-17.07c-0.75-0.73-4.34-2.7-5.52-5.66
			c-1.34-3.38-1.1-7.68-0.54-11.44c0.54-3.57,2.35-6.93,3.62-10.38c-4.53-0.77-9.39-3.08-13.5-2.09
			c-15.48,3.71-15.38,4.11-19.78-11.98c-3.08-11.18-9.32-14.35-20.34-9.98c-3.24,1.29-6.06,4.25-9.3,4.67
			c-3.97,0.52-8.2-0.85-12.31-1.39c1.46-3.92,1.71-9.39,4.53-11.55c21.49-16.51,40.02-11.53,53.71,14.11
			c4.11-0.23,8.38-0.82,12.66-0.66c11.67,0.4,21.56,8.36,20.27,19.7c-1.43,12.82,3.1,23.67,6.22,35.75
			c19.61-0.38,38.99-2.42,55.92-13.57c14.11-9.3,13.65-20.71,0.14-29.5c-4.09-2.65-6.95-7.14-10.4-10.78
			c4.32-2.54,8.64-5.07,12.99-7.56c0.66-0.38,1.53-0.38,2.25-0.63c7.3-2.7,10.5-7.63,8.67-15.52c-1.76-7.54-6.86-10.08-13.93-9.46
			c-3.08,0.26-6.11,1.29-9.16,1.97c-6.74,1.53-11.01,0.05-12.73-7.77c-3.34-15.17-5.94-16.32-21.98-12.35
			c-8.97,2.23-13.76-1.69-10.52-10.05c3.12-8.08-0.4-11.6-6.2-15.08c-14.61-8.76-28.3-4.37-40.4,4.56
			c-8.9,6.58-14.82,7.05-24.47,0.28c-31.64-22.17-60.05-8.67-64,29.26c-0.05,0.4-0.05,0.78-0.05,1.17
			c0.31,8.31-4.06,10.5-11.79,10.4c-6.9-0.07-14.26,0.47-20.69,2.75c-14.07,4.96-22.17,16.04-24.43,30.44
			c-1.95,12.54,7.52,17.43,17.14,22.05c8.08,3.88,8.15,9.72,0.75,14.84c-5.85,4.06-11.86,7.89-18.67,12.4
			c16.51,8.5,16.51,8.5,9.93,24.57c-3.17,7.73-4.65,16.42,3.15,21.11c5.5,3.31,13.81,4.44,20.2,3.17c6.9-1.36,12.75-7.47,19.63-9.91
			c3.69-1.32,11.25-0.7,12.45,1.53c4.89,9.04,9.18,4.6,15.1,1.71c5.38-2.63,12.52-5.64,17.64-4.18
			c22.55,6.44,41.87,18.74,57.92,36.1c27.99,30.27,41.92,67.26,50.73,106.58c11.65,51.97,13.18,104.68,9.18,157.54
			c-0.94,12.54,3.88,18.32,14.54,22.69c29.03,11.91,59.4,12.71,89.95,11.27c3.17-0.14,6.55-4.42,9.16-7.4
			c12.56-14.35,23.65-30.25,37.62-43.03c18.72-17.1,41.71-25.9,67.71-24.07c4.11,0.28,9.46,1.06,11.91,3.73
			c6.55,7.16,11.84,15.48,17.85,23.65c4.02-5.17,15.34-4.39,15.5-15.64c0.02-1.39,3.36-3.64,5.38-3.92
			c9.98-1.41,8.08-8.01,7.73-14.91c-0.4-7.82-0.35-15.92,1.27-23.53c2.51-11.81,0.35-15.85-12.26-16.18
			c-6.58-0.19-10.47-1.97-11.09-8.95c-0.63-7.16-4.63-7.4-10.76-6.11c-3.55,0.75-9.58-0.16-11.3-2.58c-5.4-7.7-9.46-4.13-14.23-0.02
			c-2.63,2.25-5.17,5.19-8.27,6.18c-10.9,3.5-12.42,11.27-9.44,20.43c2.84,8.67,1.2,16.32-5.8,20.86
			c-12.89,8.34-26.54,15.59-40.3,22.45c-3.1,1.55-10.05,0.99-11.48-1.13c-2.02-2.98-2.16-9.25-0.31-12.54
			c12.8-22.71,23.98-46.85,40.04-67.1c51.79-65.2,121.61-92.89,203.79-91.19c4.34,0.09,9.3,5.28,12.68,9.21
			c4.56,5.24,6.67,13.25,11.98,17c6.81,4.81,15.76,6.58,23.79,9.68c2.7-7.3,5.33-14.66,8.15-21.91c1.55-3.99,2.61-10.45,5.33-11.34
			c13.46-4.37,9.86-10.78,4.23-19.14c-2.18-3.24-1.86-8.2-2.68-12.35c3.95-0.56,8.13-2.23,11.81-1.48
			c17.9,3.62,23.11-0.94,20.41-19.21c-2.79-18.86-11.72-34.69-25.53-47.61c-6.48-6.06-8.29-10.64-1.6-18.55
			c3.85-4.56,5.68-13.06,4.58-19.12c-4.32-23.93-26.37-37.13-50.26-31.31c-7.09,1.74-15.41,6.9-20.83,4.72
			c-5.28-2.14-7.52-11.7-11.16-17.94c-8.99-15.41-19.42-18.72-32.55-8.57c-7.89,6.11-13.2,5.12-20.5-0.38
			c-12.54-9.44-15.57-8.5-22.76,5.33c-3.73,7.19-8.27,7.59-13.95,2.72c-2.37-2.02-4.09-5.85-6.62-6.39
			c-4.7-1.01-10.85-1.83-14.35,0.42c-2.3,1.48-2.77,9.32-1.08,12.92c9.54,20.15,9.84,20.01-11.39,27.43
			c-12.8,4.46-16.11,11.13-7.99,21.82c8.88,11.72,19.56,22.26,30.44,32.22c12.87,11.77,14.37,13.25,5.4,28.28
			c-20.15,33.7-49.23,58.17-83.05,77.36c-1.34,0.75-2.94,1.69-4.37,1.57c-5.19-0.35-12.12,0.66-15.05-2.23
			c-2.84-2.79-3.5-10.59-1.69-14.73c4.32-9.89,9.56-19.8,16.37-28.14c17.76-21.77,36.57-42.72,53.57-62.4
			c-6.9-12.82-16.35-24.94-20.08-38.63c-5.12-18.74,10.78-25.98,25.22-32.01c-6.69-12.54-8.64-24.57,1.34-34.52
			C1235.19,472,1248.18,472.8,1261.16,480.53z M1231.34,598.14c-23.23,24.21-47.18,48.24-64.37,77.97
			c27.92-16.46,51.88-37.06,70.03-63.97C1241.69,605.17,1240.24,600.82,1231.34,598.14z M993.71,641.92
			c-3.57-29.03-13.93-54.89-36.68-77.95C954.65,599.39,980.96,617.19,993.71,641.92z M1011.32,550.98
			c6.41,7.84,12.47,15.27,18.53,22.69c1.32-0.63,2.65-1.27,3.97-1.9c-1.76-12.85-3.52-25.69-5.28-38.54
			c-1.13,0.12-2.25,0.21-3.38,0.33C1020.88,538.94,1016.61,544.31,1011.32,550.98z M1132.79,830.42
			c22.19-7.3,25.29-13.01,19.63-33.98C1145.45,808.53,1139.13,819.47,1132.79,830.42z"/>
		<path class="st0" d="M2389.23,981.92c0.35-3.34,1.2-8.2,1.36-13.08c1.48-46.08,4.06-92.18,3.9-138.26
			c-0.12-37.46-5.87-74.12-32.72-103.76c-1.69-1.88-0.73-6.18-0.99-9.35c3.57,0.21,8.99-1.01,10.43,0.85
			c7.96,10.36,16.89,20.62,21.91,32.43c21.51,50.4,32.88,103.27,35.37,158.04c0.16,3.85,1.13,7.66,2.09,13.76
			c11.51-22.73,21.58-43.71,32.6-64.14c25.27-46.88,52.84-92.3,90.7-130.42c18.34-18.46,38.52-34.52,64.8-40.21
			c4.32-0.94,9.25,1.03,13.9,1.64c-2.09,4.16-3.24,9.3-6.41,12.33c-70.88,68.01-135.28,177.55-155.64,267.1
			c4.58-6.08,7.75-10.19,10.8-14.35c24.99-34.17,51.27-67.03,88.07-89.55c16.72-10.24,34.64-16.39,54.51-14.3
			c3.24,0.35,6.22,3.26,9.3,4.98c-1.76,2.7-2.91,6.32-5.38,7.96c-46.27,30.72-80.2,72.83-109.75,118.88
			c-28.79,44.9-51.08,93.05-68.58,143.38c-1.41,4.04,0.16,9.14,0.38,13.74c0.12,2.23,1.2,4.93,0.31,6.58
			c-13.03,24.05-6.46,48.12,0.59,71.7c3.88,12.94,10.52,25.08,16.25,37.44c24.87,53.66,34.36,108.9,12.96,165.74
			c-17.61,46.74-55.57,70.15-102.21,80.44c-20.39,4.51-41.55,5.57-62.94,8.27c0.7,4.34,1.53,9.46,3.01,18.48
			c-7.19-6.11-11.65-9.91-17.19-14.66c-0.56,7.42-1.08,14.14-1.6,20.86c-0.89,0.61-1.78,1.22-2.7,1.81
			c-4.65-5.75-9.3-11.51-13.29-16.46c-8.62,3.73-17.64,7.61-26.63,11.51c-0.54-1.1-1.06-2.21-1.6-3.31
			c4.56-6.65,9.11-13.29,15.55-22.66c-13.43,4.77-23.27,8.24-33.09,11.72c-0.7-1.03-1.39-2.09-2.09-3.12
			c2.35-4.7,4.7-9.39,7.12-14.26c-10-3.22-20.24-6.53-30.51-9.84c0.23-1.17,0.47-2.35,0.7-3.52c6.72-0.47,13.43-0.94,20.17-1.39
			c0.21-0.87,0.42-1.74,0.63-2.61c-4.79-3.66-9.65-7.23-14.37-10.99c-59.63-47.25-86.24-135.51-61.46-204.84
			c10.36-28.96,29.29-50.19,57.92-62.54c38.16-16.46,75.32-35.06,105.1-64.68c11.32-11.27,17.97-27.13,28.44-39.43
			c12.78-15.01,9.68-32.65,10.24-49.37c1.48-43.73,3.85-87.93-9.25-130.39c-4.44-14.37-15.31-26.7-22.8-40.18
			c-1.93-3.48-2.23-7.89-3.26-11.86c4.23,0.77,10.1,0.07,12.38,2.61c7.21,7.96,14.94,16.35,19.12,26.02
			C2367.57,924.85,2378.17,953.72,2389.23,981.92z M2279.76,1200.41c1.13,1.24,2.25,2.47,3.41,3.71c-2.89,2.11-5.75,4.3-8.69,6.36
			c-9.89,6.95-20.41,13.15-29.62,20.93c-38.28,32.34-62.21,71.65-58.83,123.96c1.81,27.95,11.77,53.12,25.11,77.27
			c3.92,7.12,6.6,15.24,11.77,21.25c5.24,6.06,12.49,10.64,19.49,14.87c50.4,30.48,103.03,29.71,156.58,9.98
			c37.84-13.93,62.71-40.54,72.17-79.9c10.83-45.02,4.84-89.22-15.38-130.09c-15.5-31.31-27.48-62.71-28.44-97.89
			c-22.71,2.54-12.31-17.05-16.49-25.08c-7.4,6.69-14.33,12.96-21.28,19.23c-3.69-4.84-7.4-9.65-11.06-14.44
			c-9.79,7.96-14.07,6.69-18.06-6.81c-1.83-6.18-3.43-12.42-5.24-19c-8.74,9.63-16.06,18.81-24.5,26.8
			c-30.48,28.86-66.72,48.76-105.07,64.87c-26.94,11.3-44.83,30.25-54.37,57.7c-11.09,31.89-9.61,63.76-0.63,95.66
			c6.11,21.72,15.43,41.92,30.44,59.3c-20.71-42.6-30.2-86.33-12.52-132.18C2205.81,1252.15,2239.2,1222.63,2279.76,1200.41z
			 M2430.56,1036.79c6.15-12.64,15.08-24.89,18.32-38.52c22.95-96.13,63.88-183.24,126.56-259.89c7.94-9.7,16.21-19.12,24.33-28.65
			c-1.06-1.03-2.11-2.09-3.17-3.12c-16.32,15.43-34.05,29.64-48.71,46.55c-46.5,53.66-78.51,116.28-107.78,180.39
			c-3.69,8.1-8.74,16.53-9.14,25.01C2429.81,984.25,2430.56,1010.04,2430.56,1036.79z M2428.24,1144.02
			c18.93-52.19,40.37-103.1,68.62-150.94c28.32-47.96,62.12-91.55,105-127.79c-24.31,5.89-43.03,20.34-60.05,37.08
			c-49.65,48.83-84.5,107.92-115.85,169.26c-3.15,6.15-3.17,13.88-4.3,19.21c6.11,0.89,10.59,1.55,15.05,2.18
			c-0.73,4.72-0.02,10.43-2.47,13.97C2426.41,1118.56,2426.9,1131.01,2428.24,1144.02z M2410.25,854.7
			c-0.68,0.05-1.39,0.07-2.07,0.12c-0.16,1.36-0.45,2.7-0.52,4.06c-1.78,38.21-2.94,76.45-5.5,114.61
			c-1.62,24.1-6.41,47.98-7.75,72.08c-1.55,27.85,3.64,55.87-0.66,83.8c-0.26,1.69,0.52,3.55,0.94,5.99
			c10.59-7.96,11.18-18.62,12.66-29.47c10.24-74.52,14.84-149.16,6.55-224.19C2412.95,872.67,2411.49,863.7,2410.25,854.7z
			 M2374.76,984.51c-0.94,0-1.9-0.02-2.84-0.02c0,5.28,0.16,10.59-0.02,15.85c-1.13,33.14-2.54,66.28-3.33,99.41
			c-0.21,8.74,1.39,17.52,2.14,26.3c2-0.12,3.99-0.23,5.97-0.35C2389.89,1078.59,2380.66,1031.55,2374.76,984.51z"/>
		<path class="st0" d="M1236.32,1074.93c8.1-18.32,15.48-35.02,21.84-49.41c-4.58-9.28-8.17-16.72-11.93-24.05
			c-0.63-1.27-1.97-2.21-3.1-3.17c-18.55-15.43-20.48-35.35-5.28-54.93c1.17-1.5,2.58-2.82,3.78-4.11
			c-10.26-24.38-4.96-33.94,18.34-37.46c3.64-11.79,4.09-25.41,11.11-32.57c7-7.14,20.6-7.82,33.4-12.02
			c-0.47,1.62,0.12,0.19,0.35-1.29c3.41-20.34,12.61-25.86,31.96-18.58c7.33,2.75,13.86,4.34,22.12,2.11
			c14.84-3.99,26.44,5.52,32.69,23.13c1.53,4.3,5.73,7.82,9.18,11.2c5.19,5.1,10.8,9.75,15.88,14.26
			c8.22-2.77,17.24-8.31,26.12-8.13c8.85,0.19,17.57,6.13,28.93,10.55c20.27-7.66,31.82-1.95,41.26,22.41
			c1.27,3.26,5.57,5.92,9.04,7.66c20.08,9.89,31.02,28.98,26.91,50.96c-1.55,8.29-6.88,15.85-11.55,26.12
			c0.68,2.44,2.4,8.01,3.76,13.67c3.64,15.27-3.15,28.86-17.38,35.67c-2.94,1.41-7.59,3.22-7.96,5.45
			c-2.79,16.46-13.81,22.52-28.44,23.6c-0.47,1.53-0.82,2.25-0.89,3.03c-3.12,30.06-19.68,41.08-48.64,32.62
			c-3.22-0.94-7.82-1.46-10.31,0.14c-20.43,13.11-29.47,11.13-41.17-9.82c-0.73-1.32-1.67-2.49-3.08-4.58
			c-18.06,14.23-35.77,28.21-54.13,42.7c0.96,2.47,1.6,4.96,2.82,7.12c17.83,31.64,18.27,64.33-3.43,92.65
			c-28.63,37.39-59.47,73.46-92.44,107.05c-56.13,57.16-116.42,110.03-182.13,156.16c-22.59,15.85-46.81,29.62-71.35,42.3
			c-8.9,4.6-20.88,3.22-31.45,4.58c0.38-9.75-0.92-19.92,1.36-29.19c19.7-80.32,51.9-156.16,84.64-231.73
			c23.44-54.11,48.43-107.49,82.13-156.2c8.43-12.17,17.68-23.93,27.71-34.81C1171.31,1071.73,1198.86,1055.69,1236.32,1074.93z
			 M1284.65,1273.99c9.58-12.87,21.51-27.34,31.75-42.91c18.13-27.62,16.53-57.42-3.29-84.03c-21.09-28.3-51.22-43.57-82.15-58.31
			c-24.75-11.81-46.64-8.08-63.62,11.65c-20.27,23.56-40.47,47.91-55.94,74.68c-53.31,92.28-92.28,191.1-127.29,291.5
			c-7.63,21.87-13.22,44.46-20.6,69.61c6.95-2.47,10.64-3.45,14.02-5.03c50.89-23.6,93.33-59.42,136.55-94.15
			c5.78-4.65,3.78-9.02-0.56-12.59c-2.91-2.37-7.47-2.77-10.31-5.19c-3.01-2.56-4.86-6.46-7.23-9.77c3.78-1.6,8.5-5.5,11.2-4.39
			c9.02,3.69,17.31,9.14,27.24,14.68c9.21-8.01,20.27-17.78,31.52-27.34c5.26-4.46,6.08-9.37,0.99-13.81
			c-6.67-5.82-14.44-10.38-21-16.3c-3.12-2.82-4.49-7.56-6.65-11.44c4.39-0.78,10.08-3.71,12.92-1.97
			c11.7,7.12,22.55,15.64,34.52,24.24c8.9-8.48,19.75-18.08,29.55-28.68c2.54-2.75,3.45-9.18,2.18-12.89
			c-4.89-14.23-17.24-21.61-29.43-28.79c-5.19-3.05-13.39-4.91-9.09-13.15c4.65-8.88,11.98-3.71,16.82,0.02
			c13.83,10.71,26.98,22.26,39.31,32.57c7.42-6.83,16.28-15.74,25.93-23.67c9.02-7.42,7.68-14.75,0.35-21.3
			c-14.77-13.22-30.46-25.46-45.16-38.77c-3.19-2.89-3.8-8.62-5.59-13.06c4.58-0.02,10.64-1.95,13.5,0.26
			C1244.77,1240.81,1263.75,1256.85,1284.65,1273.99z M1318.09,1128.78c17.97-14.14,35.11-27.62,52.26-41.1
			c18.81-14.8,18.84-14.8,29.12,5.99c6.55,13.22,10.99,14.33,20.06,3.29c6.65-8.08,11.06-7.63,20.29-2.68
			c15.64,8.38,30.18,5.87,31.21-15.34c0.14-3.12,0.09-6.27-0.16-9.37c-0.59-7.52,2.51-10.43,10.26-10.15
			c16.93,0.61,16.44,0.21,19.66-17.78c0.66-3.64,6.41-8.74,10.15-9.02c11.39-0.87,17.4-6.36,15.15-17.61
			c-1.2-6.01-3.78-11.91-6.6-17.4c-3.83-7.49-4.32-12.42,4.96-16.65c4.2-1.9,8.27-8.31,8.9-13.15c2.33-17.78-5.68-29.83-22.76-34.31
			c-9.28-2.44-13.88-5.82-13.5-16.46c0.16-4.37-5.1-11.04-9.46-12.8c-3.38-1.39-9.42,2.79-13.86,5.26
			c-2.21,1.22-3.05,4.74-5.21,6.18c-2.61,1.74-6.98,4.13-8.74,3.12c-2.56-1.5-4.79-5.78-4.84-8.92
			c-0.21-12.61-8.53-18.79-19.63-12.78c-7.05,3.8-14.75,8.71-18.79,15.2c-5.33,8.57-13.2,17.24-4.27,30.09
			c8.17,11.74,3.62,22.85-8.36,31.21c-2.09,1.46-4.2,2.89-6.11,4.18c9.65,27.83-0.63,41.73-28.93,40.77
			c-3.01-0.09-7.33,0.94-8.92,3.05c-5.66,7.47-10.38,15.64-15.48,23.53c-4.53-4.06-4.06-2.84-3.17-2.33
			c14.84,8.53,15.03,9.11,3.59,22.45c-13.67,15.97-27.5,31.78-40.65,46.97C1309.12,1118,1313.37,1123.1,1318.09,1128.78z
			 M1252.38,918.72c-0.54,1.46-1.08,2.91-1.64,4.37c4.27,4.79,8.9,9.32,12.71,14.47c1.83,2.49,3.55,6.6,2.7,9.11
			c-0.8,2.37-5.17,5.33-7.68,5.07c-13.32-1.32-12.56,9.54-14.84,16.96c-2.4,7.77,0.89,14.14,9.16,16.21
			c7.82,1.95,11.32,5.4,9.61,14.09c-0.52,2.61,2.89,7.94,5.59,8.85c12.21,4.2,10.1,11.67,6.15,20.41
			c-7.82,17.31-15.41,34.74-23.23,52.42c7.23,3.62,13.32,6.67,19.66,9.84c12.75-19.73,25.04-38.28,36.78-57.16
			c4.34-6.98,8.74-9.89,17.8-9.44c6.51,0.33,16.6-3.92,19.38-9.16c6.46-12.14,12.45-18.48,26.8-11.88
			c3.22,1.48,10.45-1.22,13.06-4.32c2.02-2.42,0.09-8.55-0.87-12.87c-0.56-2.51-2.94-4.58-4.02-7.07c-1.76-4.02-3.12-8.2-4.65-12.33
			c4.39-1.48,8.74-3.95,13.22-4.27c11.16-0.85,14.4-6.25,8.85-16.32c-1.32-2.37-2.7-4.84-4.6-6.74c-6.48-6.46-6.22-11.09,0.21-18.65
			c5.17-6.08,8.55-16.46,7.37-24.12c-0.7-4.65-11.56-7.8-17.97-11.41c-1.24-0.7-3.1-0.23-4.63-0.54c-8.43-1.74-9.56-5.68-5.1-13.06
			c1.67-2.77,2.37-8.57,0.68-10.4c-2.89-3.19-10.03-7.23-11.84-5.92c-10.1,7.19-18.32,2.4-27.13-1.9
			c-3.33-1.62-7.14-2.33-12.71-4.09c-0.59,6.81-1.34,12.05-1.46,17.31c-0.28,13.08-2.02,14.61-14.4,11.86
			c-24.07-5.38-30.81,1.36-25.13,25.11c0.19,0.75,0.49,1.48,0.68,2.23c3.43,13.25,0.33,16.09-13.48,13.48
			C1262.62,917.95,1257.43,918.72,1252.38,918.72z M1331.13,1057.1c-3.19-5.5-6.13-10.55-9.68-16.63
			c-12.71,19.75-24.75,38.52-36.83,57.28c0.66,1.08,1.32,2.18,1.97,3.26c3.22-1.13,7.45-1.34,9.46-3.55
			C1308.07,1084.23,1319.55,1070.54,1331.13,1057.1z"/>
		<path class="st0" d="M1949.48,1080.14c23.39,9.09,46.2,17.73,68.77,27.01c3.36,1.39,7.56,5.66,7.63,8.71
			c0.09,3.26-4.23,6.65-5.8,8.83c15.85,21.61,33.73,42.91,48.26,66.3c61.2,98.5,0.05,203.36-71.8,243.03
			c-50.26,27.74-103.88,32.36-159.26,23.04c-66.25-11.13-123.21-39.76-165.32-93.47c-69.31-88.47-34.45-200.85,41.24-253.93
			c31.02-21.77,66.04-33.07,102.82-39.97c1.36-0.26,2.7-0.56,6.93-1.43c-7.05-6.44-12.94-10.92-17.66-16.46
			c-2.28-2.68-4.25-8.53-2.87-10.64c1.67-2.51,7.7-4.34,10.73-3.29c14.3,4.98,29.31,9.3,42.02,17.17
			c14.11,8.74,28.58,11.34,46.81,11.27c1.81-11.81,4.67-23.91,5.12-36.1c0.31-8.29,3.31-11.88,10.64-14.21
			c12.82-4.06,24.75-3.83,34.97,5.94c10.43,9.98,10.17,22.29,6.08,34.74C1955.94,1065.51,1951.95,1073.99,1949.48,1080.14z
			 M1842.98,1095.52c-3.38-7.77-7.28-13.27-17.47-11.58c-34.62,5.73-67.66,15.45-97.54,34.55
			c-60.45,38.66-90.75,113.15-72.15,180.06c11.01,39.53,35.51,70.2,67.92,94.41c51.81,38.68,110.64,55.14,174.92,52.3
			c61.79-2.75,112.9-27.01,148.45-78.63c38.47-55.83,43.31-114.21,4.89-171.94c-15.62-23.46-35.37-44.32-54.44-65.29
			c-12.28-13.5-17.66-13.18-32.48-5.52c14.02,20.15,28.56,40.32,42.09,61.13c2.21,3.41,0.05,9.65-0.12,14.58
			c-4.16-1.6-9.35-2.14-12.31-4.98c-18.27-17.61-41.31-23.84-65.06-29.66c-2.25,10.99-3.55,21.09-6.48,30.67
			c-4.91,15.99-10.52,31.8-16.7,47.35c-1.13,2.82-6.27,4.6-9.89,5.47c-0.89,0.21-4.86-5.35-4.42-7.73
			c3.95-21.56-4.06-40.94-10.83-60.36c-13.65-39.34-13.97-39.78-55.59-37.77c-23.77,1.15-47.39,4.72-71.11,6.58
			c-4.79,0.38-9.79-2.18-14.7-3.38c2.68-4.56,4.39-10.4,8.29-13.36c6.76-5.1,14.51-9.39,22.5-12.28
			C1794.52,1111.52,1818.6,1103.77,1842.98,1095.52z M1888.58,1095.05c-15.17-10.12-29.29-19.56-43.38-28.98
			c4.04,10.33,9.84,18.22,14.23,26.84c6.34,12.42,3.76,16.21-9.7,19.23c-17.24,3.9-34.29,8.62-51.43,12.99
			c5.87,2.49,11.18,2.33,16.44,2.51c16.35,0.61,32.72,0.82,48.99,2.25c11.32,0.99,18.95,7.16,22.69,18.84
			c5.52,17.26,12.38,34.1,18.67,51.1c4.3-13.39,6.93-26.75,8.13-40.25c1.06-12,2.16-13.93,14.11-11.11
			c14.91,3.5,29.62,7.91,44.39,11.93c0.68-0.92,1.36-1.83,2.02-2.77c-10.43-8.41-20.86-16.84-31.26-25.27
			c-3.33-2.7-6.62-5.47-9.93-8.2c3.12-3.1,5.71-7.35,9.44-9.09c8.78-4.09,18.13-7,28.65-10.9c-20.67-7.23-37.11-6.46-49.01,12.38
			c-3.03,4.79-8.27,8.24-12.56,12.19c-9.3,8.53-17.54,2.75-25.29-2.49c-8.06-5.45-6.2-12.38-1.55-19.35
			C1884.38,1103.7,1885.91,1100.1,1888.58,1095.05z M1925.15,1030.63c-3.8,15.57-6.39,30.2-11.04,44.13
			c-4.65,13.9-11.34,27.13-17.17,40.65c22.08-17.05,38.82-37.62,47.37-63.83C1949.72,1035.02,1941.87,1027.18,1925.15,1030.63z"/>
		<path class="st0" d="M1966.39,298.21c2.11,3.55,5.03,6.86,6.22,10.71c4.3,13.69,7.3,27.81,12.26,41.24
			c2.75,7.42,8.88,13.5,12.56,20.67c1.81,3.52,1.57,8.1,2.28,12.19c-4.49-0.47-10.83,0.75-13.13-1.74
			c-5.94-6.46-11.65-13.97-14.63-22.1c-5.73-15.62-9.91-31.87-13.76-48.08c-0.87-3.66,2.23-8.27,3.5-12.45
			C1963.29,298.51,1964.84,298.35,1966.39,298.21z"/>
		<path class="st0" d="M1309.54,540.91c5.17-2.68,10.12-5.85,15.52-7.91c16.23-6.25,29.03,0.12,32.88,16.93
			c0.78,3.36-2.68,7.7-4.2,11.58c-3.26-1.9-7.89-3.01-9.58-5.87c-6.67-11.18-8.43-12-19.56-5.14c-2.65,1.62-5.4,3.34-7.52,5.57
			c-7.49,7.96-13.48,7.73-19.09-2.18c-4.58-8.08-11.58-8.62-18.95-3.85c-3.9,2.51-6.93,6.6-11.04,8.55
			c-3.85,1.83-8.6,1.76-12.94,2.54c0.8-4.49,0.12-10.22,2.63-13.27C1273.26,529.07,1289.32,527.24,1309.54,540.91z"/>
		<path class="st0" d="M1223.63,445.72c-2.72,5.47-7.19,15.69-12.99,25.08c-1.34,2.18-7.21,1.6-10.99,2.3
			c-0.49-3.5-2.02-7.28-1.2-10.45c1.03-3.99,4.2-7.4,6.04-11.25c6.39-13.36,3.36-21.07-10.92-24.17c-8.24-1.78-12-4.56-14.58-13.32
			c-1.71-5.8-10.43-10.19-16.84-13.72c-4.84-2.65-12-3.57-8.6-10.55c1.46-2.96,8.97-4.89,13.22-4.2
			c12.56,2.04,21.94,9.04,27.5,21.14c1.46,3.17,5.71,5.64,9.21,7.23C1214.99,419.02,1223.07,426.49,1223.63,445.72z"/>
		<path class="st0" d="M1089.25,481.96c-1.34,4.25-3.43,13.03-7.07,21.11c-1.27,2.82-6.34,3.92-9.68,5.82
			c-1.43-3.85-4.27-7.82-3.97-11.55c0.45-5.68,3.64-11.09,4.6-16.79c2.04-12.19-1.76-17.38-13.9-17.17
			c-10.22,0.19-15.88-2.3-14.58-13.67c0.82-7.23-3.1-9.98-9.98-9.11c-5.78,0.75-11.44-0.73-10.26-7.21
			c0.59-3.24,6.53-7.19,10.52-7.82c12.33-1.93,19.99,3.8,24.75,14.8c1.5,3.45,5.54,6.93,9.18,8.15
			C1082.95,453.28,1090.12,462.7,1089.25,481.96z"/>
		<path class="st0" d="M1029.5,396.66c-10.33,8.27-18.77,5.85-27.83-1.06c-7.02-5.35-13.25-0.28-17.8,5.64
			c-2.33,3.03-3.26,7.33-5.99,9.84c-2.42,2.25-7,4.51-9.54,3.62c-2.3-0.8-4.74-6.08-4.3-8.95c3.12-20.6,26.66-32.39,45.73-24.03
			c4.44,1.95,10.17,1.88,15.2,1.43c12.85-1.13,22.1,5.54,21.96,17.8c-0.05,3.66-3.78,7.26-5.82,10.9c-2.84-2.51-5.89-4.84-8.45-7.59
			C1031.47,402.95,1031.17,400.82,1029.5,396.66z"/>
		<path class="st0" d="M852.65,552.53c-9.39,4.51-15.52,3.17-19.4-5.54c-2.89-6.51-8.03-5.45-12.4-1.71
			c-4.42,3.78-7.77,8.85-12.4,12.28c-2.18,1.64-7.68,2.21-9.09,0.73c-2.11-2.16-3.55-7.23-2.44-9.89
			c8.74-20.97,29.9-26.16,48.17-12.54c1.95,1.46,4.89,1.81,7.42,2.14c12.42,1.57,18.79,9.68,15.69,21.89
			c-0.92,3.55-5.54,6.13-8.45,9.16c-2.37-3.36-4.89-6.6-7-10.12C852.11,557.87,852.65,556.06,852.65,552.53z"/>
		<path class="st0" d="M1360.37,631.47c-0.63,15.45-7.63,24.14-17.66,30.27c-2.23,1.36-7.61-0.07-9.89-2.09
			c-1.41-1.24-0.02-6.06,0.68-9.16c0.31-1.29,2.07-2.25,3.17-3.36c11.51-11.55,10.52-17.1-3.24-26.44
			c-3.73-2.54-5.57-7.84-8.24-11.91c-1.69-2.56-3.57-5.05-4.93-7.8c-1.55-3.1-4.6-7.96-3.5-9.37c2.14-2.79,7.07-5.59,10.15-4.96
			c4.04,0.8,9.84,4.32,10.66,7.68c2.56,10.45,9.35,16.98,16.39,24.12C1357.74,622.29,1359.03,628.58,1360.37,631.47z"/>
		<path class="st0" d="M2245.4,1455.42c-10.94-47.82-10.69-95.68,3.03-143.19c13.65-47.23,38.89-86.71,78.49-116.04
			c1.08,0.73,2.14,1.48,3.22,2.21c-1.67,2.33-2.94,5.12-5.07,6.9c-59.68,49.91-82.22,115.57-80.7,191.15
			c0.33,16.32,3.1,32.57,4.7,48.87c0.33,3.31,0.4,6.67,0.61,10.01C2248.24,1455.35,2246.83,1455.37,2245.4,1455.42z"/>
		<path class="st0" d="M2357.36,1207.03c-28.89,85.32-68.65,167.62-77.97,259.82c-0.66-4.7-2.61-9.63-1.76-14.04
			c5.28-28.3,8.69-57.28,17.36-84.55c16.63-52.28,36.31-103.57,54.82-155.24c0.92-2.58,2.58-4.89,3.9-7.33
			C2354.92,1206.12,2356.14,1206.59,2357.36,1207.03z"/>
		<path class="st0" d="M2395.85,1218.78c1.46,70.55-2.65,140.42-28.77,207.43c-8.6,22.03-19.96,42.39-37.44,58.46
			c-0.94-0.52-1.9-1.03-2.84-1.55c0.59-1.88,0.66-4.23,1.86-5.52c28.75-31.47,41.12-70.36,49.7-110.78
			c9.61-45.28,12.87-91.22,11.81-137.46c-0.07-2.72,0.05-5.47,0.35-8.2c0.09-0.96,1.01-1.81,1.55-2.72
			C2393.32,1218.57,2394.58,1218.66,2395.85,1218.78z"/>
		<path class="st0" d="M2424.97,1230.38c49.06,54.11,21.18,229.74-38.82,244.2c33.84-31.05,53.62-69.07,57.73-114.54
			C2447.9,1315.44,2439.14,1272.56,2424.97,1230.38z"/>
	</g>
</g>
</svg>
